<svg width="34" height="37" viewBox="0 0 34 37" fill="none" xmlns="http://www.w3.org/2000/svg">
<g filter="url(#filter0_d_38_25305)">
<path d="M9.94786 18L5 22V6C5 5.73478 5.10536 5.48043 5.29289 5.29289C5.48043 5.10536 5.73478 5 6 5H22C22.2652 5 22.5196 5.10536 22.7071 5.29289C22.8946 5.48043 23 5.73478 23 6V17C23 17.2652 22.8946 17.5196 22.7071 17.7071C22.5196 17.8946 22.2652 18 22 18H9.94786Z" stroke="black" stroke-width="2" stroke-linecap="round" stroke-linejoin="round"/>
<path d="M11 18V23C11 23.2652 11.1054 23.5196 11.2929 23.7071C11.4804 23.8946 11.7348 24 12 24H24.0521L29 28V12C29 11.7348 28.8946 11.4804 28.7071 11.2929C28.5196 11.1054 28.2652 11 28 11H23" stroke="black" stroke-width="2" stroke-linecap="round" stroke-linejoin="round"/>
</g>
<defs>
<filter id="filter0_d_38_25305" x="-3" y="0" width="40" height="40" filterUnits="userSpaceOnUse" color-interpolation-filters="sRGB">
<feFlood flood-opacity="0" result="BackgroundImageFix"/>
<feColorMatrix in="SourceAlpha" type="matrix" values="0 0 0 0 0 0 0 0 0 0 0 0 0 0 0 0 0 0 127 0" result="hardAlpha"/>
<feOffset dy="4"/>
<feGaussianBlur stdDeviation="2"/>
<feComposite in2="hardAlpha" operator="out"/>
<feColorMatrix type="matrix" values="0 0 0 0 0 0 0 0 0 0 0 0 0 0 0 0 0 0 0.25 0"/>
<feBlend mode="normal" in2="BackgroundImageFix" result="effect1_dropShadow_38_25305"/>
<feBlend mode="normal" in="SourceGraphic" in2="effect1_dropShadow_38_25305" result="shape"/>
</filter>
</defs>
</svg>
