<svg width="342" height="406" viewBox="0 0 342 406" fill="none" xmlns="http://www.w3.org/2000/svg">
<path d="M204.05 205.122L245.937 224.089L202.871 239.214M204.05 205.122L224.209 177.13M204.05 205.122L184.008 177.13M204.05 205.122L165.769 204.025M204.05 205.122L202.871 239.214M202.871 239.214L257.657 250.862L240.319 267.695M202.871 239.214L240.319 267.695M202.871 239.214L199.819 270.988M202.871 239.214L169.884 207.928M202.871 239.214L245.937 214.819M202.871 239.214L247.532 255.071M240.319 267.695L199.819 270.988M240.319 267.695L231.581 291.175M240.319 267.695L217.157 284.588M199.819 270.988L217.157 284.588M199.819 270.988L191.636 301.055M199.819 270.988L163.411 284.588M199.819 270.988L158.279 261.84M199.819 270.988L165.769 204.025M199.819 270.988L143.785 209.696M231.581 291.175L217.157 284.588M231.581 291.175L219.307 299.652M231.581 291.175L229.986 328.011M231.581 291.175L205.922 306.909M231.581 291.175L240.319 325.876M217.157 284.588L219.307 299.652M217.157 284.588L191.636 301.055M217.157 284.588L247.532 255.071M217.157 284.588L205.922 306.909M191.636 301.055L219.307 299.652M191.636 301.055L164.659 334.109M191.636 301.055L188.446 330.816M191.636 301.055L163.411 284.588M191.636 301.055L200.998 275.074M191.636 301.055L205.922 306.909M191.636 301.055L210.291 338.683M191.636 301.055L191.752 301.725M191.636 301.055L146.697 334.109M219.307 299.652L229.986 328.011M219.307 299.652L198.987 343.623M198.987 343.623L211.123 370.213M198.987 343.623L187.336 368.323M198.987 343.623L178.251 346.185M198.987 343.623L188.446 330.816M198.987 343.623L208.795 338.683M198.987 343.623L191.752 301.725M229.986 328.011L233.731 368.323M229.986 328.011L211.123 370.213M229.986 328.011L208.795 338.683M233.731 368.323L211.123 370.213M233.731 368.323L222.011 389.241M211.123 370.213L222.011 389.241M211.123 370.213L200.305 402.963L187.336 368.323M211.123 370.213L187.336 368.323M211.123 370.213L210.291 338.683M211.123 370.213V386.07M222.011 389.241L211.123 386.07M187.336 368.323L178.251 346.185M187.336 368.323L196.976 404L211.123 386.07M187.336 368.323L211.123 386.07M187.336 368.323L208.795 338.683M178.251 346.185L164.659 334.109M178.251 346.185L188.446 330.816M164.659 334.109L188.446 330.816M164.659 334.109H146.697M164.659 334.109L191.752 324.412M146.697 334.109L163.411 284.588M146.697 334.109L105.85 308.129M146.697 334.109L118.125 340.574M146.697 334.109L135.601 264.462M146.697 334.109L103.215 312.276M163.411 284.588L135.601 264.462M163.411 284.588L158.279 261.84M105.85 308.129L118.125 340.574M105.85 308.129L75.8913 318.985M105.85 308.129L135.601 264.462M105.85 308.129L88.7903 281.356M105.85 308.129L75.8913 291.175M118.125 340.574L77.417 345.148M118.125 340.574L87.4727 338.927M118.125 340.574L75.8913 318.985M118.125 340.574L103.215 312.276M77.417 345.148L87.4727 338.927M77.417 345.148H52.9365M87.4727 338.927L75.8913 318.985M87.4727 338.927L57.3749 327.279M87.4727 338.927L51.6189 335.146M87.4727 338.927L52.9365 345.148M87.4727 338.927L57.3749 330.816L55.2944 330.122M87.4727 338.927L51.876 337.098M87.4727 338.927L73.8801 321.607M75.8913 318.985L57.3749 327.279M75.8913 318.985L61.2585 310.203M75.8913 318.985V291.175M75.8913 318.985L57.3749 291.175M57.3749 327.279L40.0375 321.851M57.3749 327.279L39.1359 332.219M57.3749 327.279L50.7173 318.985M57.3749 327.279L61.2585 310.203M57.3749 327.279L55.2944 330.122M57.3749 327.279L73.8801 321.607M51.6189 335.146L39.1359 332.219M51.6189 335.146L43.2969 340.574M51.6189 335.146L51.876 337.098M51.6189 335.146L55.2944 330.122M39.1359 332.219L43.2969 340.574M39.1359 332.219L40.0375 321.851M43.2969 340.574L52.9365 345.148M52.9365 345.148L51.876 337.098M40.0375 321.851L50.7173 318.985M40.0375 321.851L43.2969 308.8M50.7173 318.985L61.2585 310.203M50.7173 318.985L43.2969 308.8M61.2585 310.203L43.2969 308.8M61.2585 310.203L57.3749 291.175M61.2585 310.203L73.8801 321.607M43.2969 308.8L41.0777 297.395M43.2969 308.8L57.3749 291.175M43.2969 308.8L48.2207 291.175M135.601 264.462L158.279 261.84M135.601 264.462L88.7903 281.356M135.601 264.462L94.6157 250.862M135.601 264.462L143.785 209.696M135.601 264.462L124.159 217.625M158.279 261.84L143.785 209.696M88.7903 281.356L94.6157 250.862M88.7903 281.356L68.1241 269.585M88.7903 281.356L75.8913 291.175M88.7903 281.356L75.8913 268.063M88.7903 281.356L131.44 277.636M88.7903 281.356L79.8442 294.227M88.7903 281.356L89.6487 278.27M94.6157 250.862H69.4418M94.6157 250.862L75.8913 268.063M94.6157 250.862L124.159 217.625M94.6157 250.862L85.7389 222.077M213.55 99.7984L250.999 139.928L224.209 177.13M213.55 99.7984L244.55 74.9768M213.55 99.7984L205.506 38.3239M213.55 99.7984L142.744 72.1105M213.55 99.7984L224.209 177.13M213.55 99.7984L194.341 119.619M213.55 99.7984L225.964 154.321M213.55 99.7984L205.114 88.3939M244.55 74.9768L269.238 33.7498M244.55 74.9768L205.506 38.3239M269.238 33.7498L308.213 74.9768M269.238 33.7498H319.448M269.238 33.7498L274.301 13.8682M269.238 33.7498L205.506 38.3239M308.213 74.9768L341.085 58.3885L319.448 33.7498M308.213 74.9768L319.448 33.7498M308.213 74.9768L269.238 43.2028M319.448 33.7498L274.301 13.8682M319.448 33.7498L269.238 43.2028M274.301 13.8682L228.946 3.25651M274.301 13.8682L205.506 38.3239M274.301 13.8682L269.238 42.41M274.301 13.8682L200.166 32.2252M228.946 3.25651L187.475 1M228.946 3.25651L205.506 38.3239M228.946 3.25651L200.166 32.2252M187.475 1L137.613 10.27M187.475 1L205.506 38.3239M187.475 1L169.652 40.4584M187.475 1L166.254 20.0278M187.475 1L200.166 32.2252M187.475 1L166.254 39.6656M137.613 10.27L94.1996 28.9319M137.613 10.27L166.254 20.0278M137.613 10.27L169.652 40.4584M137.613 10.27L123.812 51.314M137.613 10.27L166.254 39.6656M94.1996 28.9319L76.3074 42.4709M94.1996 28.9319L123.812 51.314M94.1996 28.9319L84.9068 57.2297M94.1996 28.9319L123.812 48.4476M94.1996 28.9319L80.399 53.1436M76.3074 42.4709L65.2114 56.01M76.3074 42.4709L84.9068 57.2297M65.2114 56.01L52.7285 76.0136M65.2114 56.01L84.9068 57.2297M65.2114 56.01V74.9768M65.2114 56.01L80.399 53.1436M65.2114 56.01L65.3967 56.3149M52.7285 76.0136L41.0777 108.702M52.7285 76.0136L65.2114 74.9768M52.7285 76.0136L61.1198 89.4307M52.7285 76.0136L50.9947 110.715M41.0777 108.702L37.4022 123.766M41.0777 108.702L50.9947 110.715M37.4022 123.766V133.036M37.4022 123.766L50.9947 110.715M37.4022 123.766L43.4356 125.962M37.4022 133.036L39.4827 139.928M37.4022 133.036L43.4356 125.962M37.4022 133.036L43.4356 132.774M39.4827 139.928L43.4356 146.697M39.4827 139.928L43.4356 132.774M39.4827 139.928L50.0238 132.487M39.4827 139.928L47.3886 136.573M43.4356 146.697V154.443M43.4356 146.697L56.4255 154.443M43.4356 146.697L47.3886 136.573M43.4356 146.697L52.7978 139.928M43.4356 146.697L61.1891 144.075M43.4356 154.443L42.2567 164.017M43.4356 154.443H56.4255M43.4356 154.443L48.7755 171.092M42.2567 164.017L37.4022 173.104M42.2567 164.017L48.7755 171.092M37.4022 173.104L28.04 185.79M37.4022 173.104V181.155M37.4022 173.104L48.7755 171.092M28.04 185.79V197.743M28.04 185.79L37.4022 181.155M28.04 185.79L21.2353 193.114M15.349 199.451L6.40286 208.05M15.349 199.451L18.6084 211.282M15.349 199.451L28.04 197.743M15.349 199.451L21.2353 193.114M6.40286 208.05L2.93538 211.282M6.40286 208.05L18.6084 211.282M2.93538 211.282L1.34033 217.625M2.93538 211.282H18.6084M1.34033 217.625L4.46107 224.089M1.34033 217.625L13.6152 219.027M1.34033 217.625L18.6084 211.282M4.46107 224.089L13.6152 230.615M4.46107 224.089L13.6152 219.027M13.6152 230.615L24.3644 234.884M13.6152 230.615V219.027M13.6152 230.615L17.4988 224.089M24.3644 234.884L28.04 239.214M24.3644 234.884L20.9316 229.487M24.3644 234.884L26.4449 224.821M24.3644 234.884L28.04 230.512M28.04 239.214L24.3644 249.643M28.04 239.214L27.4158 249.643M28.04 239.214L35.0443 240.922M28.04 239.214L41.8059 223.632M28.04 239.214L32.8251 224.821M24.3644 249.643L20.0648 256.656M24.3644 249.643H27.4158M20.0648 256.656L21.7985 260.071M20.0648 256.656L27.4158 257.144M21.7985 260.071L24.3644 263.304M21.7985 260.071L27.4158 257.144M24.3644 263.304L29.5657 267.695M24.3644 263.304L27.4158 257.144M29.5657 267.695L33.0332 273.062M29.5657 267.695L24.2984 273.281M29.5657 267.695L29.2189 271.354M29.5657 267.695L31.9236 260.071M29.5657 267.695L34.6282 268.915M29.5657 267.695L27.4158 257.144M24.2984 273.281L22.7987 278.27M24.2984 273.281L33.0332 273.062M24.2984 273.281L26.737 275.867M24.2984 273.281L29.2189 271.354M22.7987 278.27L22.7694 284.588M22.7987 278.27L26.737 279.813M22.7987 278.27L26.737 275.867M22.7694 284.588L25.6821 286.784M22.7694 284.588L26.737 279.813M35.0443 291.175L29.5657 289.711L25.6821 286.784M35.0443 291.175L41.0777 297.395M35.0443 291.175H48.2207M35.0443 291.175L33.0332 285.198M41.0777 297.395L48.2207 291.175M205.506 38.3239L169.652 40.4584M169.652 40.4584L142.744 72.1105M169.652 40.4584L123.812 51.314M169.652 40.4584L166.254 20.0278M169.652 40.4584L205.114 88.3939M142.744 72.1105L118.403 125.962M142.744 72.1105L107.237 90.7114M142.744 72.1105L123.812 51.314M142.744 72.1105L84.9068 57.2297M142.744 72.1105L194.341 119.619M142.744 72.1105L137.821 165.603M118.403 125.962L107.237 90.7114M118.403 125.962L137.821 165.603M118.403 125.962L103.423 160.785M118.403 125.962L86.9872 133.036M118.403 125.962L119.374 177.13M118.403 125.962L92.2612 141.94M118.403 125.962L157.377 81.6854M118.403 125.962L145.38 163.103M118.403 125.962L112.924 175.056M107.237 90.7114L81.3699 82.6002M107.237 90.7114L79.012 114.984M107.237 90.7114L84.9068 57.2297M107.237 90.7114L86.9872 133.036M107.237 90.7114L157.377 81.6854M107.237 90.7114L79.3229 110.715M123.812 51.314L84.9068 57.2297M84.9068 57.2297L81.3699 82.6002M224.209 177.13L194.341 119.619M224.209 177.13H184.008M194.341 119.619L137.821 165.603M194.341 119.619L184.008 177.13M194.341 119.619L225.964 154.321M194.341 119.619L205.114 88.3939M194.341 119.619L157.377 81.6854M194.341 119.619L145.38 163.103M137.821 165.603L184.008 177.13M137.821 165.603L143.022 181.155M137.821 165.603L119.374 177.13M137.821 165.603L112.924 175.056M81.3699 82.6002L65.2114 74.9768M81.3699 82.6002L61.1198 89.4307M81.3699 82.6002L50.9947 110.715M81.3699 82.6002L79.3229 110.715M81.3699 82.6002L80.399 53.1436M81.3699 82.6002L65.3967 56.3149M81.3699 82.6002L61.4665 73.5132M65.2114 74.9768L61.1198 89.4307M61.1198 89.4307L50.9947 110.715M61.1198 89.4307L61.4665 73.5132M50.9947 110.715L79.012 114.984M50.9947 110.715L52.1737 124.62M50.9947 110.715L65.2808 124.62M50.9947 110.715L77.2089 127.242M50.9947 110.715L43.4356 125.962M50.9947 110.715H79.3229M50.9947 110.715L47.5966 128.218H52.7978M79.012 114.984L86.9872 133.036M79.012 114.984L77.2089 127.242M79.012 114.984L79.3229 110.715M184.008 177.13L165.769 204.025M184.008 177.13L143.022 181.155M184.008 177.13L225.964 154.321M184.008 177.13L245.937 214.819M184.008 177.13L145.38 163.103M184.008 177.13L149.957 178.776M184.008 177.13L169.884 207.928M165.769 204.025L143.022 181.155M165.769 204.025L143.785 209.696M165.769 204.025L169.884 207.928M103.423 160.785L119.374 177.13M103.423 160.785L100.094 181.155M103.423 160.785L92.2612 141.94M103.423 160.785L90.2467 165.603M103.423 160.785L86.9872 152.369M103.423 160.785L92.2612 182.984M86.9872 133.036L77.2089 127.242M86.9872 133.036L92.2612 141.94M86.9872 133.036L83.1037 139.928M52.1737 124.62L43.4356 125.962M52.1737 124.62L50.0238 132.487M52.1737 124.62L61.1891 131.268M52.1737 124.62H57.3402M65.2808 124.62L77.2089 127.242M65.2808 124.62L66.9452 127.242M65.2808 124.62L61.1891 131.268M65.2808 124.62H62.5068M77.2089 127.242L73.7414 139.135M77.2089 127.242L92.2612 141.94M77.2089 127.242L80.399 147.673M77.2089 127.242L83.1037 139.928M77.2089 127.242L69.6498 131.805M143.022 181.155L119.374 177.13M143.022 181.155L143.785 209.696M119.374 177.13L124.159 217.625M119.374 177.13L143.785 209.696M119.374 177.13L100.094 181.155M119.374 177.13L115.629 188.839M119.374 177.13L149.957 178.776M75.8913 291.175H57.3749M75.8913 291.175L79.8442 294.227M75.8913 291.175L71.0204 277.636M57.3749 291.175H48.2207M57.3749 291.175L46.4177 279.069M57.3749 291.175L68.1241 269.585M57.3749 291.175L46.4177 271.354M57.3749 291.175L81.4393 319.203M57.3749 291.175L103.215 312.276M48.2207 291.175L39.1359 282.637M48.2207 291.175L33.0332 285.198M48.2207 291.175L46.4177 279.069M33.0332 285.198L39.1359 282.637M33.0332 285.198L30.6753 281.356M33.0332 285.198L25.6821 286.784M39.1359 282.637L30.6753 281.356M39.1359 282.637L37.957 279.069M39.1359 282.637L46.4177 279.069M30.6753 281.356L25.6821 286.784M30.6753 281.356L26.737 279.813M30.6753 281.356L33.0332 273.062M30.6753 281.356L36.778 275.501M30.6753 281.356L37.957 279.069M25.6821 286.784L26.737 279.813M26.737 279.813L33.0332 273.062M26.737 279.813V275.867M33.0332 273.062L36.778 275.501M33.0332 273.062L26.737 275.867M33.0332 273.062L29.2189 271.354M33.0332 273.062L34.6282 268.915M36.778 275.501L37.957 279.069M36.778 275.501L46.4177 271.354M36.778 275.501L42.1873 275.211M36.778 275.501L39.6907 269.585M36.778 275.501L34.6282 268.915M37.957 279.069H46.4177M37.957 279.069L42.1873 275.211M46.4177 279.069V271.354M46.4177 279.069L42.1873 275.211M68.1241 269.585L69.4418 250.862M68.1241 269.585L75.8913 268.063M68.1241 269.585L55.5718 253.607M68.1241 269.585L46.4177 271.354M68.1241 269.585L71.0204 277.636M68.1241 269.585L65.9049 251.562M68.1241 269.585L54.3764 255.924M69.4418 250.862L75.8913 268.063M69.4418 250.862L50.7173 244.459M69.4418 250.862L85.7389 222.077M69.4418 250.862L59.5941 234.884M69.4418 250.862L62.5068 214.209M69.4418 250.862L77.417 226.346M69.4418 250.862L95.864 255.924M69.4418 250.862L65.9049 251.562M75.8913 268.063L95.864 255.924M75.8913 268.063L89.6487 278.27M50.7173 244.459L55.5718 253.607M50.7173 244.459L59.5941 234.884M50.7173 244.459L39.6907 252.997M50.7173 244.459L43.4356 227.87M55.5718 253.607L39.6907 252.997M55.5718 253.607L65.9049 251.562M55.5718 253.607L54.3764 255.924M46.4177 271.354L42.1873 275.211M46.4177 271.354L39.6907 252.997M46.4177 271.354L39.6907 269.585M46.4177 271.354L37.957 264.462M46.4177 271.354L54.3764 255.924M143.785 209.696L124.159 217.625M124.159 217.625L110.358 206.647M124.159 217.625L85.7389 222.077M100.094 181.155L110.358 206.647M100.094 181.155L79.012 180.301M100.094 181.155L90.2467 165.603M100.094 181.155L112.924 175.056M100.094 181.155L99.8162 181.601M110.358 206.647H84.2133M110.358 206.647L85.7389 222.077M110.358 206.647L115.629 188.839M110.358 206.647L112.924 175.056M110.358 206.647L99.8162 181.601M110.358 206.647L96.523 186.887M84.2133 206.647L79.012 180.301M84.2133 206.647L85.7389 222.077M84.2133 206.647L62.5068 214.209M84.2133 206.647L96.523 186.887M79.012 180.301H71.2449M79.012 180.301L90.2467 165.603M79.012 180.301L78.4054 160.785M79.012 180.301L80.8542 168.439M79.012 180.301L72.0077 168.439M79.012 180.301L80.399 204.025M79.012 180.301L69.1564 200.548M62.5068 214.209L59.5941 194.084M62.5068 214.209L85.7389 222.077M62.5068 214.209L59.5941 234.884M62.5068 214.209L55.5718 208.05M62.5068 214.209L43.4356 227.87M62.5068 214.209L80.399 204.025M62.5068 214.209L67.2226 209.696L66.8706 205.244M62.5068 214.209L66.8706 205.244M62.5068 214.209L69.5475 186.887M59.5941 194.084L71.2449 180.301M59.5941 194.084V182.984M59.5941 194.084L55.5718 208.05M59.5941 194.084L50.7173 197.743M71.2449 180.301L59.5941 182.984M71.2449 180.301L63.0009 175.056M71.2449 180.301L65.2808 169.75M71.2449 180.301L71.9689 169.042M71.2449 180.301L69.5475 186.887M59.5941 182.984L43.4356 194.084M59.5941 182.984L47.5966 180.301M59.5941 182.984L63.0009 175.056M59.5941 182.984L50.7173 197.743M43.4356 194.084L47.5966 180.301M43.4356 194.084L50.7173 197.743M43.4356 194.084L36.4313 217.076M43.4356 194.084L28.04 197.743M43.4356 194.084L41.7588 190.491M47.5966 180.301L65.2808 169.75M47.5966 180.301L63.0009 175.056M47.5966 180.301L48.7755 171.092M47.5966 180.301L37.4022 181.155M65.2808 169.75L48.7755 171.092M65.2808 169.75L63.0009 175.056M65.2808 169.75V160.785M65.2808 169.75L72.0077 168.439M48.7755 171.092L37.4022 181.155M48.7755 171.092L56.4255 154.443M48.7755 171.092L65.2808 160.785M37.4022 181.155L28.04 197.743M37.4022 181.155L41.7588 190.491M37.4022 181.155L38.3731 190.364M28.04 197.743L35.1872 214.209M28.04 197.743L38.3731 190.364M28.04 197.743L27.8859 197.964M18.6084 211.282L22.7987 215.917M18.6084 211.282L36.4313 217.076M18.6084 211.282L13.6152 219.027M18.6084 211.282L38.3731 190.364M18.6084 211.282L31.6136 205.976L38.3731 190.364M18.6084 211.282L27.8859 197.964M59.5941 234.884L43.4356 227.87M43.4356 125.962L50.0238 132.487M43.4356 125.962V132.774M92.2612 141.94L80.399 147.673M92.2612 141.94L83.1037 139.928M92.2612 141.94L86.9872 152.369M92.2612 141.94L90.2467 165.603M80.399 147.673L73.7414 139.135M80.399 147.673L86.9872 152.369M80.399 147.673L73.7414 146.697M80.399 147.673L78.1798 153.528M80.399 147.673L83.1037 139.928M73.7414 139.135V146.697M73.7414 139.135L67.4653 142.937M73.7414 146.697L78.1798 153.528M73.7414 146.697L61.1891 144.075M73.7414 146.697L63.0009 152.369M73.7414 146.697L67.4653 142.937M78.1798 153.528L86.9872 152.369M78.1798 153.528L78.4054 160.785M78.1798 153.528L82.6963 156.577M78.1798 153.528L63.0009 152.369M78.1798 153.528L65.2808 160.785M78.1798 153.528L72.0077 168.439M78.1798 153.528L71.2449 160.785M86.9872 152.369L90.2467 165.603M86.9872 152.369L82.6963 156.577M86.9872 152.369L80.8542 168.439M90.2467 165.603L80.8542 168.439M90.2467 165.603L82.6963 156.577M78.4054 160.785L82.6963 156.577M78.4054 160.785L72.0077 168.439M82.6963 156.577L80.8542 168.439M80.8542 168.439L71.9689 169.042M61.1891 144.075L56.4255 154.443M61.1891 144.075V139.177M61.1891 144.075L52.7978 139.928M61.1891 144.075L62.5068 150.107M63.0009 152.369L56.4255 154.443M63.0009 152.369L65.2808 160.785M63.0009 152.369L62.5068 150.107M65.2808 160.785L72.0077 168.439M65.2808 160.785H71.2449M72.0077 168.439L71.2449 160.785M72.0077 168.439L71.9689 169.042M50.0238 132.487L43.4356 132.774M50.0238 132.487L61.1891 131.268M50.0238 132.487L61.1891 139.177M50.0238 132.487L47.3886 136.573M50.0238 132.487L52.7978 139.928M61.1891 131.268L73.7414 138.708L69.6498 131.805M61.1891 131.268L66.9452 127.242M61.1891 131.268V139.177M61.1891 131.268L67.4653 142.937M66.9452 127.242L69.6498 131.805M61.1891 139.177L67.4653 142.937M61.1891 139.177L52.7978 139.928M47.3886 136.573L52.7978 139.928M50.7173 197.743L55.5718 208.05M50.7173 197.743L36.4313 217.076M55.5718 208.05L36.4313 217.076M55.5718 208.05L43.4356 227.87M55.5718 208.05L41.8059 223.632M55.5718 208.05L41.0777 219.405M36.4313 217.076L22.7987 215.917M36.4313 217.076L39.6907 220.491M36.4313 217.076L32.8251 224.821M36.4313 217.076L29.635 218.811M36.4313 217.076L29.6689 222.321M36.4313 217.076L35.8092 215.643M25.6821 219.82L22.7987 215.917M25.6821 219.82L13.6152 219.027M25.6821 219.82L17.4988 224.089M25.6821 219.82L23.3069 224.653M25.6821 219.82L29.635 218.811M25.6821 219.82L26.0635 222.321M22.7987 215.917L13.6152 219.027M13.6152 219.027L17.4988 224.089M17.4988 224.089L20.9316 229.487M39.6907 252.997L37.957 264.462M39.6907 252.997L35.0443 240.922M39.6907 252.997L31.9236 260.071M39.6907 252.997L27.4158 249.643M39.6907 252.997L43.4356 227.87M39.6907 269.585L37.957 264.462M39.6907 269.585L34.6282 268.915M37.957 264.462L31.9236 260.071M31.9236 260.071L34.6282 268.915M31.9236 260.071L27.4158 249.643M31.9236 260.071L27.4158 257.144M27.4158 249.643V257.144M27.4158 249.643L35.0443 240.922M43.4356 227.87L35.0443 240.922M43.4356 227.87L41.8059 223.632M35.0443 240.922L41.8059 223.632M39.6907 220.491L32.8251 224.821M39.6907 220.491L41.8059 223.632M39.6907 220.491L41.0777 219.405M32.8251 224.821H29.635M32.8251 224.821L28.5948 229.853M32.8251 224.821L37.3155 224.227M41.8059 223.632L37.3155 224.227M20.9316 229.487L26.4449 224.821M20.9316 229.487L23.3069 224.653M26.4449 224.821L26.0635 222.321M26.4449 224.821H28.04M26.4449 224.821L29.6689 222.321M225.964 154.321L250.999 113.703L205.114 88.3939M225.964 154.321L245.937 214.819M205.114 88.3939L157.377 81.6854M205.114 88.3939L200.166 32.2252M205.114 88.3939L263.621 86.1984M205.114 88.3939L166.254 39.6656M157.377 81.6854L145.38 163.103M157.377 81.6854L123.812 48.4476M157.377 81.6854L166.254 39.6656M145.38 163.103L149.957 178.776M123.812 48.4476L166.254 39.6656M123.812 48.4476L80.399 53.1436M166.254 39.6656L200.166 32.2252M200.166 32.2252L263.621 86.1984M200.166 32.2252L269.238 43.2028M263.621 86.1984L269.238 43.2028M65.3967 56.3149L61.4665 73.5132M245.937 214.819L206.685 211.099L169.884 207.928M149.957 178.776L169.884 207.928M149.957 178.776L146.697 214.209M169.884 207.928L146.697 214.209M247.532 255.071L200.998 275.074M200.998 275.074L164.659 288.308M200.998 275.074L176.379 269.585M205.922 306.909L210.291 338.683M205.922 306.909L240.319 325.876M210.291 338.683L240.319 325.876M210.291 338.683L191.752 324.412M240.319 325.876L238.794 352.283L211.123 386.07M191.752 301.725V324.412M191.752 301.725L164.659 288.308M103.215 312.276L81.4393 319.203M103.215 312.276L131.44 277.636M103.215 312.276L79.8442 294.227M73.8801 321.607L81.4393 319.203M164.659 288.308L176.379 269.585M164.659 288.308L131.44 277.636M164.659 288.308L146.697 335.146L131.44 277.636M176.379 269.585L131.44 277.636M176.379 269.585L146.697 214.209M131.44 277.636L146.697 214.209M131.44 277.636L124.159 220.491M131.44 277.636L95.864 255.924M146.697 214.209L124.159 220.491M124.159 220.491L77.417 226.346M124.159 220.491L95.864 255.924M124.159 220.491L115.629 188.839M77.417 226.346L95.864 255.924M77.417 226.346L80.399 204.025M95.864 255.924L89.6487 278.27M115.629 188.839L112.924 175.056M99.8162 181.601L96.523 186.887M99.8162 181.601L92.2612 182.984M96.523 186.887L92.2612 182.984M92.2612 182.984L80.399 204.025M79.8442 294.227L71.0204 277.636M29.635 224.821L28.5948 229.853M29.635 224.821H28.04M28.5948 229.853L28.04 230.512M23.3069 224.653L28.04 230.512M27.4158 220.491L25.6821 222.321M27.4158 220.491L28.3694 222.976M27.4158 220.491L29.3492 219.027M29.635 218.811L29.3492 219.027M26.0635 222.321L28.3694 222.976M35.1872 214.209L36.2513 219.218M35.1872 214.209L35.8092 215.643M35.1872 214.209L41.0777 219.405M37.3155 224.227L36.291 219.405M37.3155 224.227L30.6753 223.632L28.3694 222.976M37.3155 224.227L41.0777 219.405M28.04 224.821L36.2513 219.218M36.2513 219.218L36.291 219.405M36.2513 219.218L41.0777 219.405M29.6689 222.321L41.0777 219.405M29.6689 222.321L29.3492 219.027M66.8706 205.244L69.1564 200.548M69.1564 200.548L69.5475 186.887M62.5068 150.107L55.5718 165.603L67.4653 154.443L54.3764 148.527L63.0009 142.937L62.5068 124.62M62.5068 124.62H57.3402M57.3402 124.62L41.7588 190.491M35.8092 215.643L41.7588 190.491M38.3731 190.364L41.7588 190.491M27.8859 197.964L21.2353 193.114M29.3492 219.027L36.291 219.405" stroke="#80D2FD"/>
<path d="M204.05 205.131L245.937 224.098L202.871 239.224M204.05 205.131L224.209 177.137M204.05 205.131L184.008 177.137M204.05 205.131L165.769 204.033M204.05 205.131L202.871 239.224M202.871 239.224L257.657 250.873L240.319 267.706M202.871 239.224L240.319 267.706M202.871 239.224L199.819 270.999M202.871 239.224L165.769 204.033M240.319 267.706L199.819 270.999M240.319 267.706L231.581 291.187M240.319 267.706L217.157 284.6M199.819 270.999L217.157 284.6M199.819 270.999L191.636 301.067M199.819 270.999L163.411 284.6M199.819 270.999L158.279 261.851M199.819 270.999L165.769 204.033M199.819 270.999L143.785 209.705M231.581 291.187L217.157 284.6M231.581 291.187L219.307 299.664M231.581 291.187L229.986 328.024M217.157 284.6L219.307 299.664M217.157 284.6L191.636 301.067M191.636 301.067L219.307 299.664M191.636 301.067L198.987 343.637M191.636 301.067L164.659 334.123M191.636 301.067L188.446 330.83M191.636 301.067L163.411 284.6M219.307 299.664L229.986 328.024M219.307 299.664L198.987 343.637M198.987 343.637L229.986 328.024M198.987 343.637L211.123 370.229M198.987 343.637L187.336 368.338M198.987 343.637L178.251 346.199M198.987 343.637L188.446 330.83M229.986 328.024L233.731 368.338M229.986 328.024L211.123 370.229M233.731 368.338L211.123 370.229M233.731 368.338L222.011 389.257L211.123 370.229M211.123 370.229L200.305 402.98L187.336 368.338M211.123 370.229L187.336 368.338M187.336 368.338L178.251 346.199M178.251 346.199L164.659 334.123M178.251 346.199L188.446 330.83M164.659 334.123L188.446 330.83M164.659 334.123H146.697M146.697 334.123L163.411 284.6M146.697 334.123L105.85 308.142M146.697 334.123L118.125 340.588M146.697 334.123L135.601 264.473M163.411 284.6L135.601 264.473M163.411 284.6L158.279 261.851M105.85 308.142L118.125 340.588M105.85 308.142L75.8913 318.998M105.85 308.142L135.601 264.473M105.85 308.142L88.7903 281.367M105.85 308.142L75.8913 291.187M118.125 340.588L77.417 345.162M118.125 340.588L87.4727 338.941M118.125 340.588L75.8913 318.998M77.417 345.162L87.4727 338.941M77.417 345.162H52.9365M87.4727 338.941L75.8913 318.998M87.4727 338.941L57.3749 327.292M87.4727 338.941L51.6189 335.16M75.8913 318.998L57.3749 327.292M75.8913 318.998L61.2585 310.215M75.8913 318.998V291.187M75.8913 318.998L57.3749 291.187M57.3749 327.292L51.6189 335.16M57.3749 327.292L40.0375 321.864M57.3749 327.292L39.1359 332.232M57.3749 327.292L50.7173 318.998M57.3749 327.292L61.2585 310.215M51.6189 335.16L39.1359 332.232M51.6189 335.16L52.9365 345.162M51.6189 335.16L43.2969 340.588M39.1359 332.232L43.2969 340.588M39.1359 332.232L40.0375 321.864M43.2969 340.588L52.9365 345.162M40.0375 321.864L50.7173 318.998M40.0375 321.864L43.2969 308.812M50.7173 318.998L61.2585 310.215M50.7173 318.998L43.2969 308.812M61.2585 310.215L43.2969 308.812M61.2585 310.215L57.3749 291.187M43.2969 308.812L41.0777 297.407M43.2969 308.812L57.3749 291.187M43.2969 308.812L48.2207 291.187M135.601 264.473L158.279 261.851M135.601 264.473L88.7903 281.367M135.601 264.473L94.6157 250.873M135.601 264.473L143.785 209.705M135.601 264.473L124.159 217.634M158.279 261.851L143.785 209.705M88.7903 281.367L94.6157 250.873M88.7903 281.367L68.1241 269.596M88.7903 281.367L75.8913 291.187M88.7903 281.367L75.8913 268.073M94.6157 250.873H69.4418M94.6157 250.873L75.8913 268.073M94.6157 250.873L124.159 217.634M94.6157 250.873L85.739 222.086M213.551 99.8025L250.999 139.933L224.209 177.137M213.551 99.8025L244.55 74.9799M213.551 99.8025L205.506 38.3254M213.551 99.8025L169.652 40.46M213.551 99.8025L142.744 72.1134M213.551 99.8025L224.209 177.137M213.551 99.8025L194.341 119.624M244.55 74.9799L269.238 33.7512M244.55 74.9799L205.506 38.3254M269.238 33.7512L308.213 74.9799M269.238 33.7512H319.448M269.238 33.7512L274.301 13.8687M269.238 33.7512L205.506 38.3254M308.213 74.9799L341.085 58.3908L319.448 33.7512M308.213 74.9799L319.448 33.7512M319.448 33.7512L274.301 13.8687M274.301 13.8687L228.946 3.2566M274.301 13.8687L205.506 38.3254M228.946 3.2566L187.475 1M228.946 3.2566L205.506 38.3254M187.475 1L137.613 10.2704M187.475 1L205.506 38.3254M187.475 1L169.652 40.46M187.475 1L166.254 20.0286M137.613 10.2704L94.1996 28.933M137.613 10.2704L166.254 20.0286M137.613 10.2704L169.652 40.46M137.613 10.2704L123.812 51.3161M94.1996 28.933L76.3074 42.4726M94.1996 28.933L123.812 51.3161M94.1996 28.933L84.9068 57.232M76.3074 42.4726L65.2114 56.0122M76.3074 42.4726L84.9068 57.232M65.2114 56.0122L52.7285 76.0167M65.2114 56.0122L84.9068 57.232M65.2114 56.0122L81.3699 82.6035M65.2114 56.0122V74.9799M52.7285 76.0167L41.0777 108.707M52.7285 76.0167L65.2114 74.9799M52.7285 76.0167L61.1198 89.4343M52.7285 76.0167L50.9947 110.72M41.0777 108.707L37.4022 123.771M41.0777 108.707L50.9947 110.72M37.4022 123.771V133.042M37.4022 123.771L50.9947 110.72M37.4022 123.771L43.4356 125.967M37.4022 133.042L39.4827 139.933M37.4022 133.042L43.4356 125.967M37.4022 133.042L43.4356 132.779M39.4827 139.933L43.4356 146.703M39.4827 139.933L43.4356 132.779M39.4827 139.933L50.0238 132.493M39.4827 139.933L47.3886 136.579M43.4356 146.703V154.449M43.4356 146.703L56.4255 154.449M43.4356 146.703L47.3886 136.579M43.4356 146.703L52.7978 139.933M43.4356 146.703L61.1891 144.081M43.4356 154.449L42.2567 164.024M43.4356 154.449H56.4255M43.4356 154.449L48.7755 171.099M42.2567 164.024L37.4022 173.111M42.2567 164.024L48.7755 171.099M37.4022 173.111L28.04 185.797M37.4022 173.111V181.162M37.4022 173.111L48.7755 171.099M28.04 185.797L15.349 199.459M28.04 185.797V197.751M28.04 185.797L37.4022 181.162M15.349 199.459L6.40286 208.058M15.349 199.459L18.6084 211.291M15.349 199.459L28.04 197.751M6.40286 208.058L2.93538 211.291M6.40286 208.058L18.6084 211.291M2.93538 211.291L1.34033 217.634M2.93538 211.291H18.6084M1.34033 217.634L4.46107 224.098M1.34033 217.634L13.6152 219.036M1.34033 217.634L18.6084 211.291M4.46107 224.098L13.6152 230.624M4.46107 224.098L13.6152 219.036M13.6152 230.624L24.3644 234.894M13.6152 230.624V219.036M13.6152 230.624L17.4988 224.098M24.3644 234.894L28.04 239.224M24.3644 234.894L32.8251 224.83M24.3644 234.894L20.9316 229.496M24.3644 234.894L26.4449 224.83M28.04 239.224L24.3644 249.653M28.04 239.224L27.4158 249.653M28.04 239.224L35.0443 240.931M28.04 239.224L41.8059 223.641M28.04 239.224L32.8251 224.83M24.3644 249.653L20.0648 256.667M24.3644 249.653H27.4158M20.0648 256.667L21.7985 260.082M20.0648 256.667L27.4158 257.155M21.7985 260.082L24.3644 263.314M21.7985 260.082L27.4158 257.155M24.3644 263.314L29.5657 267.706M24.3644 263.314L27.4158 257.155M29.5657 267.706L33.0332 273.073M29.5657 267.706L24.2984 273.292M29.5657 267.706L29.2189 271.365M29.5657 267.706L31.9236 260.082M29.5657 267.706L34.6282 268.925M29.5657 267.706L27.4158 257.155M24.2984 273.292L22.7987 278.281M24.2984 273.292L33.0332 273.073M24.2984 273.292L26.737 275.878M24.2984 273.292L29.2189 271.365M22.7987 278.281L22.7694 284.6M22.7987 278.281L26.737 279.824M22.7987 278.281L26.737 275.878M22.7694 284.6L25.6821 286.795M22.7694 284.6L26.737 279.824M35.0443 291.187L29.5657 289.723L25.6821 286.795M35.0443 291.187L41.0777 297.407M35.0443 291.187H48.2207M35.0443 291.187L33.0332 285.21M41.0777 297.407L48.2207 291.187M205.506 38.3254L169.652 40.46M169.652 40.46L142.744 72.1134M169.652 40.46L123.812 51.3161M169.652 40.46L166.254 20.0286M142.744 72.1134L118.403 125.967M142.744 72.1134L107.237 90.7151M142.744 72.1134L123.812 51.3161M142.744 72.1134L84.9068 57.232M142.744 72.1134L194.341 119.624M142.744 72.1134L137.821 165.61M118.403 125.967L107.237 90.7151M118.403 125.967L137.821 165.61M118.403 125.967L103.423 160.792M118.403 125.967L86.9872 133.042M118.403 125.967L119.374 177.137M118.403 125.967L92.2612 141.946M107.237 90.7151L81.3699 82.6035M107.237 90.7151L79.012 114.989M107.237 90.7151L84.9068 57.232M107.237 90.7151L86.9872 133.042M123.812 51.3161L84.9068 57.232M84.9068 57.232L81.3699 82.6035M224.209 177.137L194.341 119.624M224.209 177.137H184.008M194.341 119.624L137.821 165.61M194.341 119.624L184.008 177.137M137.821 165.61L184.008 177.137M137.821 165.61L143.022 181.162M137.821 165.61L119.374 177.137M81.3699 82.6035L65.2114 74.9799M81.3699 82.6035L61.1198 89.4343M81.3699 82.6035L79.012 114.989M81.3699 82.6035L50.9947 110.72M65.2114 74.9799L61.1198 89.4343M61.1198 89.4343L50.9947 110.72M50.9947 110.72L79.012 114.989M50.9947 110.72L52.1737 124.625M50.9947 110.72L65.2808 124.625M50.9947 110.72L77.2089 127.248M50.9947 110.72L43.4356 125.967M79.012 114.989L86.9872 133.042M79.012 114.989L77.2089 127.248M184.008 177.137L165.769 204.033M184.008 177.137L143.022 181.162M165.769 204.033L143.022 181.162M165.769 204.033L143.785 209.705M103.423 160.792L119.374 177.137M103.423 160.792L100.094 181.162M103.423 160.792L92.2612 141.946M103.423 160.792L90.2467 165.61M103.423 160.792L86.9872 152.375M86.9872 133.042L77.2089 127.248M86.9872 133.042L92.2612 141.946M86.9872 133.042L83.1037 139.933M52.1737 124.625H65.2808M52.1737 124.625L43.4356 125.967M52.1737 124.625L50.0238 132.493M52.1737 124.625L61.1891 131.273M65.2808 124.625L77.2089 127.248M65.2808 124.625L66.9452 127.248M65.2808 124.625L61.1891 131.273M77.2089 127.248L73.7414 139.141M77.2089 127.248L92.2612 141.946M77.2089 127.248L80.399 147.679M77.2089 127.248L83.1037 139.933M77.2089 127.248L69.6498 131.811M143.022 181.162L119.374 177.137M143.022 181.162L143.785 209.705M119.374 177.137L124.159 217.634M119.374 177.137L143.785 209.705M119.374 177.137L100.094 181.162M75.8913 291.187H57.3749M75.8913 291.187L68.1241 269.596M57.3749 291.187H48.2207M57.3749 291.187L46.4177 279.08M57.3749 291.187L68.1241 269.596M57.3749 291.187L46.4177 271.365M48.2207 291.187L39.1359 282.648M48.2207 291.187L33.0332 285.21M48.2207 291.187L46.4177 279.08M33.0332 285.21L39.1359 282.648M33.0332 285.21L30.6753 281.367M33.0332 285.21L25.6821 286.795M39.1359 282.648L30.6753 281.367M39.1359 282.648L37.957 279.08M39.1359 282.648L46.4177 279.08M30.6753 281.367L25.6821 286.795M30.6753 281.367L26.737 279.824M30.6753 281.367L33.0332 273.073M30.6753 281.367L36.778 275.512M30.6753 281.367L37.957 279.08M25.6821 286.795L26.737 279.824M26.737 279.824L33.0332 273.073M26.737 279.824V275.878M33.0332 273.073L36.778 275.512M33.0332 273.073L26.737 275.878M33.0332 273.073L29.2189 271.365M33.0332 273.073L34.6282 268.925M36.778 275.512L37.957 279.08M36.778 275.512L46.4177 271.365M36.778 275.512L42.1873 275.223M36.778 275.512L39.6907 269.596M36.778 275.512L34.6282 268.925M37.957 279.08H46.4177M37.957 279.08L42.1873 275.223M46.4177 279.08V271.365M46.4177 279.08L42.1873 275.223M68.1241 269.596L69.4418 250.873M68.1241 269.596L75.8913 268.073M68.1241 269.596L55.5718 253.617M68.1241 269.596L46.4177 271.365M69.4418 250.873L75.8913 268.073M69.4418 250.873L50.7173 244.469M69.4418 250.873L55.5718 253.617M69.4418 250.873L85.739 222.086M69.4418 250.873L59.5941 234.894M69.4418 250.873L62.5068 214.218M50.7173 244.469L55.5718 253.617M50.7173 244.469L59.5941 234.894M50.7173 244.469L39.6907 253.007M50.7173 244.469L43.4356 227.88M55.5718 253.617L46.4177 271.365M55.5718 253.617L39.6907 253.007M46.4177 271.365L42.1873 275.223M46.4177 271.365L39.6907 253.007M46.4177 271.365L39.6907 269.596M46.4177 271.365L37.957 264.473M143.785 209.705L124.159 217.634M124.159 217.634L110.358 206.656M124.159 217.634L85.739 222.086M100.094 181.162L110.358 206.656M100.094 181.162L79.012 180.308M100.094 181.162L84.2133 206.656M100.094 181.162L90.2467 165.61M110.358 206.656H84.2133M110.358 206.656L85.739 222.086M84.2133 206.656L79.012 180.308M84.2133 206.656L85.739 222.086M84.2133 206.656L62.5068 214.218M79.012 180.308L62.5068 214.218M79.012 180.308H71.2449M79.012 180.308L90.2467 165.61M79.012 180.308L78.4054 160.792M79.012 180.308L80.8542 168.446M79.012 180.308L72.0077 168.446M62.5068 214.218L59.5941 194.092M62.5068 214.218L85.739 222.086M62.5068 214.218L71.2449 180.308M62.5068 214.218L59.5941 234.894M62.5068 214.218L55.5718 208.058M62.5068 214.218L43.4356 227.88M59.5941 194.092L71.2449 180.308M59.5941 194.092V182.992M59.5941 194.092L55.5718 208.058M59.5941 194.092L50.7173 197.751M71.2449 180.308L59.5941 182.992M71.2449 180.308L63.0009 175.063M71.2449 180.308L65.2808 169.757M71.2449 180.308L71.9689 169.049M59.5941 182.992L43.4356 194.092M59.5941 182.992L47.5966 180.308M59.5941 182.992L63.0009 175.063M59.5941 182.992L50.7173 197.751M43.4356 194.092L47.5966 180.308M43.4356 194.092L50.7173 197.751M43.4356 194.092L37.4022 181.162M43.4356 194.092L28.04 197.751M43.4356 194.092L36.4313 217.085M47.5966 180.308L65.2808 169.757M47.5966 180.308L63.0009 175.063M47.5966 180.308L48.7755 171.099M47.5966 180.308L37.4022 181.162M65.2808 169.757L48.7755 171.099M65.2808 169.757L63.0009 175.063M65.2808 169.757V160.792M65.2808 169.757L72.0077 168.446M48.7755 171.099L37.4022 181.162M48.7755 171.099L56.4255 154.449M48.7755 171.099L65.2808 160.792M37.4022 181.162L28.04 197.751M28.04 197.751L18.6084 211.291M28.04 197.751L36.4313 217.085M18.6084 211.291L22.7987 215.926M18.6084 211.291L36.4313 217.085M18.6084 211.291L13.6152 219.036M59.5941 234.894L43.4356 227.88M43.4356 125.967L50.0238 132.493M43.4356 125.967V132.779M92.2612 141.946L80.399 147.679M92.2612 141.946L83.1037 139.933M92.2612 141.946L86.9872 152.375M92.2612 141.946L90.2467 165.61M80.399 147.679L73.7414 139.141M80.399 147.679L86.9872 152.375M80.399 147.679L73.7414 146.703M80.399 147.679L78.1798 153.534M80.399 147.679L83.1037 139.933M73.7414 139.141V146.703M73.7414 139.141L67.4653 142.943M73.7414 146.703L78.1798 153.534M73.7414 146.703L61.1891 144.081M73.7414 146.703L63.0009 152.375M73.7414 146.703L67.4653 142.943M78.1798 153.534L86.9872 152.375M78.1798 153.534L78.4054 160.792M78.1798 153.534L82.6963 156.583M78.1798 153.534L63.0009 152.375M78.1798 153.534L65.2808 160.792M78.1798 153.534L72.0077 168.446M78.1798 153.534L71.2449 160.792M86.9872 152.375L90.2467 165.61M86.9872 152.375L82.6963 156.583M86.9872 152.375L80.8542 168.446M90.2467 165.61L80.8542 168.446M90.2467 165.61L82.6963 156.583M78.4054 160.792L82.6963 156.583M78.4054 160.792L72.0077 168.446M82.6963 156.583L80.8542 168.446M80.8542 168.446L71.9689 169.049M61.1891 144.081L63.0009 152.375M61.1891 144.081L56.4255 154.449M61.1891 144.081V139.182M61.1891 144.081L52.7978 139.933M63.0009 152.375L56.4255 154.449M63.0009 152.375L65.2808 160.792M65.2808 160.792L72.0077 168.446M65.2808 160.792H71.2449M72.0077 168.446L71.2449 160.792M72.0077 168.446L71.9689 169.049M50.0238 132.493L43.4356 132.779M50.0238 132.493L61.1891 131.273M50.0238 132.493L61.1891 139.182M50.0238 132.493L47.3886 136.579M50.0238 132.493L52.7978 139.933M61.1891 131.273L73.7414 138.714L69.6498 131.811M61.1891 131.273L66.9452 127.248M61.1891 131.273V139.182M61.1891 131.273L67.4653 142.943M66.9452 127.248L69.6498 131.811M61.1891 139.182L67.4653 142.943M61.1891 139.182L52.7978 139.933M47.3886 136.579L52.7978 139.933M50.7173 197.751L55.5718 208.058M50.7173 197.751L36.4313 217.085M55.5718 208.058L36.4313 217.085M55.5718 208.058L43.4356 227.88M55.5718 208.058L39.6907 220.5M55.5718 208.058L41.8059 223.641M36.4313 217.085L25.6821 219.829M36.4313 217.085L22.7987 215.926M36.4313 217.085L39.6907 220.5M36.4313 217.085L32.8251 224.83M36.4313 217.085L26.4449 224.83M25.6821 219.829L22.7987 215.926M25.6821 219.829L13.6152 219.036M25.6821 219.829L17.4988 224.098M25.6821 219.829L20.9316 229.496M25.6821 219.829L26.4449 224.83M22.7987 215.926L13.6152 219.036M13.6152 219.036L17.4988 224.098M17.4988 224.098L20.9316 229.496M39.6907 253.007L37.957 264.473M39.6907 253.007L35.0443 240.931M39.6907 253.007L31.9236 260.082M39.6907 253.007L27.4158 249.653M39.6907 253.007L43.4356 227.88M39.6907 269.596L37.957 264.473M39.6907 269.596L34.6282 268.925M37.957 264.473L31.9236 260.082M31.9236 260.082L34.6282 268.925M31.9236 260.082L27.4158 249.653M31.9236 260.082L27.4158 257.155M27.4158 249.653V257.155M27.4158 249.653L35.0443 240.931M43.4356 227.88L35.0443 240.931M43.4356 227.88L41.8059 223.641M35.0443 240.931L41.8059 223.641M39.6907 220.5L32.8251 224.83M39.6907 220.5L41.8059 223.641M32.8251 224.83L41.8059 223.641M32.8251 224.83H26.4449M20.9316 229.496L26.4449 224.83" stroke="#00A5FA"/>
<g filter="url(#filter0_f_97_734)">
<circle cx="79.996" cy="145.939" r="4.41886" fill="#0094FF"/>
</g>
<g filter="url(#filter1_f_97_734)">
<circle cx="59.6694" cy="180.406" r="1.76754" fill="#0094FF"/>
</g>
<g filter="url(#filter2_f_97_734)">
<circle cx="55.2505" cy="206.035" r="1.76754" fill="#0094FF"/>
</g>
<g filter="url(#filter3_f_97_734)">
<circle cx="56.1342" cy="152.125" r="1.76754" fill="#0094FF"/>
</g>
<g filter="url(#filter4_f_97_734)">
<circle cx="61.437" cy="136.217" r="1.76754" fill="#0094FF"/>
</g>
<g filter="url(#filter5_f_97_734)">
<circle cx="52.5991" cy="125.612" r="1.76754" fill="#0094FF"/>
</g>
<g filter="url(#filter6_f_97_734)">
<circle cx="79.1123" cy="177.754" r="1.76754" fill="#0094FF"/>
</g>
<g filter="url(#filter7_f_97_734)">
<circle cx="59.6694" cy="231.665" r="1.76754" fill="#0094FF"/>
</g>
<defs>
<filter id="filter0_f_97_734" x="66.5771" y="132.52" width="26.8379" height="26.8376" filterUnits="userSpaceOnUse" color-interpolation-filters="sRGB">
<feFlood flood-opacity="0" result="BackgroundImageFix"/>
<feBlend mode="normal" in="SourceGraphic" in2="BackgroundImageFix" result="shape"/>
<feGaussianBlur stdDeviation="4.5" result="effect1_foregroundBlur_97_734"/>
</filter>
<filter id="filter1_f_97_734" x="48.9019" y="169.638" width="21.5352" height="21.5352" filterUnits="userSpaceOnUse" color-interpolation-filters="sRGB">
<feFlood flood-opacity="0" result="BackgroundImageFix"/>
<feBlend mode="normal" in="SourceGraphic" in2="BackgroundImageFix" result="shape"/>
<feGaussianBlur stdDeviation="4.5" result="effect1_foregroundBlur_97_734"/>
</filter>
<filter id="filter2_f_97_734" x="44.4829" y="195.268" width="21.5352" height="21.5352" filterUnits="userSpaceOnUse" color-interpolation-filters="sRGB">
<feFlood flood-opacity="0" result="BackgroundImageFix"/>
<feBlend mode="normal" in="SourceGraphic" in2="BackgroundImageFix" result="shape"/>
<feGaussianBlur stdDeviation="4.5" result="effect1_foregroundBlur_97_734"/>
</filter>
<filter id="filter3_f_97_734" x="45.3667" y="141.357" width="21.5352" height="21.5352" filterUnits="userSpaceOnUse" color-interpolation-filters="sRGB">
<feFlood flood-opacity="0" result="BackgroundImageFix"/>
<feBlend mode="normal" in="SourceGraphic" in2="BackgroundImageFix" result="shape"/>
<feGaussianBlur stdDeviation="4.5" result="effect1_foregroundBlur_97_734"/>
</filter>
<filter id="filter4_f_97_734" x="50.6694" y="125.449" width="21.5352" height="21.5352" filterUnits="userSpaceOnUse" color-interpolation-filters="sRGB">
<feFlood flood-opacity="0" result="BackgroundImageFix"/>
<feBlend mode="normal" in="SourceGraphic" in2="BackgroundImageFix" result="shape"/>
<feGaussianBlur stdDeviation="4.5" result="effect1_foregroundBlur_97_734"/>
</filter>
<filter id="filter5_f_97_734" x="41.8315" y="114.844" width="21.5352" height="21.5352" filterUnits="userSpaceOnUse" color-interpolation-filters="sRGB">
<feFlood flood-opacity="0" result="BackgroundImageFix"/>
<feBlend mode="normal" in="SourceGraphic" in2="BackgroundImageFix" result="shape"/>
<feGaussianBlur stdDeviation="4.5" result="effect1_foregroundBlur_97_734"/>
</filter>
<filter id="filter6_f_97_734" x="68.3447" y="166.987" width="21.5352" height="21.5352" filterUnits="userSpaceOnUse" color-interpolation-filters="sRGB">
<feFlood flood-opacity="0" result="BackgroundImageFix"/>
<feBlend mode="normal" in="SourceGraphic" in2="BackgroundImageFix" result="shape"/>
<feGaussianBlur stdDeviation="4.5" result="effect1_foregroundBlur_97_734"/>
</filter>
<filter id="filter7_f_97_734" x="48.9019" y="220.897" width="21.5352" height="21.5352" filterUnits="userSpaceOnUse" color-interpolation-filters="sRGB">
<feFlood flood-opacity="0" result="BackgroundImageFix"/>
<feBlend mode="normal" in="SourceGraphic" in2="BackgroundImageFix" result="shape"/>
<feGaussianBlur stdDeviation="4.5" result="effect1_foregroundBlur_97_734"/>
</filter>
</defs>
</svg>
