<svg width="34" height="37" viewBox="0 0 34 37" fill="none" xmlns="http://www.w3.org/2000/svg">
<g filter="url(#filter0_d_97_708)">
<path d="M17 21C19.7614 21 22 18.7614 22 16C22 13.2386 19.7614 11 17 11C14.2386 11 12 13.2386 12 16C12 18.7614 14.2386 21 17 21Z" stroke="white" stroke-width="1.5" stroke-miterlimit="10"/>
<path d="M22.5 4.5H11.5C8.18629 4.5 5.5 7.18629 5.5 10.5V21.5C5.5 24.8137 8.18629 27.5 11.5 27.5H22.5C25.8137 27.5 28.5 24.8137 28.5 21.5V10.5C28.5 7.18629 25.8137 4.5 22.5 4.5Z" stroke="white" stroke-width="1.5" stroke-linecap="round" stroke-linejoin="round"/>
<path d="M23.5 11C24.3284 11 25 10.3284 25 9.5C25 8.67157 24.3284 8 23.5 8C22.6716 8 22 8.67157 22 9.5C22 10.3284 22.6716 11 23.5 11Z" fill="white"/>
</g>
<defs>
<filter id="filter0_d_97_708" x="-3" y="0" width="40" height="40" filterUnits="userSpaceOnUse" color-interpolation-filters="sRGB">
<feFlood flood-opacity="0" result="BackgroundImageFix"/>
<feColorMatrix in="SourceAlpha" type="matrix" values="0 0 0 0 0 0 0 0 0 0 0 0 0 0 0 0 0 0 127 0" result="hardAlpha"/>
<feOffset dy="4"/>
<feGaussianBlur stdDeviation="2"/>
<feComposite in2="hardAlpha" operator="out"/>
<feColorMatrix type="matrix" values="0 0 0 0 0 0 0 0 0 0 0 0 0 0 0 0 0 0 0.25 0"/>
<feBlend mode="normal" in2="BackgroundImageFix" result="effect1_dropShadow_97_708"/>
<feBlend mode="normal" in="SourceGraphic" in2="effect1_dropShadow_97_708" result="shape"/>
</filter>
</defs>
</svg>
