<svg width="38" height="36" viewBox="0 0 38 36" fill="none" xmlns="http://www.w3.org/2000/svg">
<g filter="url(#filter0_d_97_707)">
<path d="M33.0005 7.58268C31.9119 9.14125 30.5536 10.4929 28.9898 11.5739L28.9897 11.5739C28.8908 14.3077 28.0928 16.9706 26.6719 19.3083C25.2509 21.6459 23.2545 23.5804 20.8732 24.9269C18.4919 26.2735 15.8053 26.9872 13.0696 27C10.334 27.0127 7.6408 26.324 5.24707 24.9997L5.24788 24.9982C8.37369 24.9549 11.4176 23.9924 14 22.2307L13.9999 22.2308C11.2355 20.3467 9.1301 17.6447 7.97878 14.5037C6.82746 11.3627 6.68798 7.94011 7.5799 4.71582L7.57985 4.71585C8.85731 6.68317 10.5518 8.34551 12.5432 9.5851C14.5346 10.8247 16.7742 11.6112 19.1034 11.8889L19.103 11.889C18.8577 10.7197 19.0391 9.50132 19.6144 8.45423C20.1896 7.40714 21.1207 6.60056 22.239 6.18046C23.3574 5.76037 24.5893 5.75452 25.7116 6.16397C26.834 6.57341 27.7726 7.37111 28.3578 8.41269L28.3578 8.41324C29.9378 8.36609 31.5022 8.08623 33.0005 7.58268" stroke="white" stroke-width="1.5" stroke-linecap="round" stroke-linejoin="round"/>
</g>
<defs>
<filter id="filter0_d_97_707" x="-1" y="0" width="40" height="40" filterUnits="userSpaceOnUse" color-interpolation-filters="sRGB">
<feFlood flood-opacity="0" result="BackgroundImageFix"/>
<feColorMatrix in="SourceAlpha" type="matrix" values="0 0 0 0 0 0 0 0 0 0 0 0 0 0 0 0 0 0 127 0" result="hardAlpha"/>
<feOffset dy="4"/>
<feGaussianBlur stdDeviation="2"/>
<feComposite in2="hardAlpha" operator="out"/>
<feColorMatrix type="matrix" values="0 0 0 0 0 0 0 0 0 0 0 0 0 0 0 0 0 0 0.25 0"/>
<feBlend mode="normal" in2="BackgroundImageFix" result="effect1_dropShadow_97_707"/>
<feBlend mode="normal" in="SourceGraphic" in2="effect1_dropShadow_97_707" result="shape"/>
</filter>
</defs>
</svg>
